# xmcd
#
# Track frame offsets: 
#        150
#        11933
#        22833
#        34225
#        44830
#        58465
#        72078
#        84523
#        93898
#        107688
#        118990
#        132235
#        141398
#        153310
#        165883
#        179745
#        196905
#        213218
#        223945
#        236618
#        247045
#        257560
#        268615
#
# Disc length: 3763 seconds
#
# Revision: 1
# Processed by: cddbd v1.5.2PL0 Copyright (c) Steve Scherf et al.
# Submitted via: ExactAudioCopyFreeDBPlugin 1.0
#
DISCID=570eb117
DTITLE=Various Artist - Pure Country Classics: The #1 Hits
DYEAR=2003
DGENRE=Country
TTITLE0=Tennessee Ernie Ford - Sixteen Tons
TTITLE1=Roger Miller - King Of The Road
TTITLE2=Sonny James - Young Love
TTITLE3=Leroy Van Dyke - Walk On By
TTITLE4=Loretta Lynn - Coal Miner's Daughter
TTITLE5=Jimmy Dean - Big Bad John
TTITLE6=George Jones - White Lightning
TTITLE7=Webb Pierce - In The Jailhouse Now
TTITLE8=Lefty Frizell - Saginaw, Michigan
TTITLE9=Kitty Wells - It Wasn't God Who Made Honkey Tonk Angels
TTITLE10=Waylon Jennings and Willie Nelson - Good Hearted Woman
TTITLE11=Charley Pride - Kiss An Angel Good Morning
TTITLE12=Eddy Arnold - Make The World Go Away
TTITLE13=Bill Anderson - Still
TTITLE14=Dolly Parton - I Will Always Love You
TTITLE15=Ray Price - For The Good Times
TTITLE16=Cal Smith - Country Bumpkin
TTITLE17=Faron Young - Hello Walls
TTITLE18=Patsy Cline - I Fall To Pieces
TTITLE19=Jim Reeves - He'll Have To Go
TTITLE20=Ferlin Husky - Gone
TTITLE21=Conway Twitty - Hello Darlin'
TTITLE22=Hank Williams - Lovesick Blues
EXTD=
EXTT0=
EXTT1=
EXTT2=
EXTT3=
EXTT4=
EXTT5=
EXTT6=
EXTT7=
EXTT8=
EXTT9=
EXTT10=
EXTT11=
EXTT12=
EXTT13=
EXTT14=
EXTT15=
EXTT16=
EXTT17=
EXTT18=
EXTT19=
EXTT20=
EXTT21=
EXTT22=
PLAYORDER=
